<svg xmlns="http://www.w3.org/2000/svg" height="512pt" version="1.1" viewBox="0 -32 512 512" width="512pt">
<g id="surface1">
<path d="M 495.128906 0 L 16.871094 0 C 7.570312 0 0 7.566406 0 16.871094 L 0 99.160156 L 512 99.160156 L 512 16.871094 C 512 7.566406 504.429688 0 495.128906 0 Z M 79.351562 60.617188 C 79 60.96875 78.628906 61.300781 78.25 61.609375 C 77.878906 61.917969 77.480469 62.21875 77.070312 62.488281 C 76.660156 62.757812 76.238281 63.007812 75.808594 63.238281 C 75.378906 63.46875 74.929688 63.679688 74.480469 63.867188 C 74.03125 64.050781 73.558594 64.21875 73.101562 64.359375 C 72.628906 64.507812 72.148438 64.628906 71.671875 64.71875 C 71.191406 64.820312 70.699219 64.886719 70.21875 64.9375 C 69.730469 64.988281 69.230469 65.019531 68.738281 65.019531 C 68.25 65.019531 67.761719 64.988281 67.269531 64.9375 C 66.78125 64.886719 66.289062 64.820312 65.808594 64.71875 C 65.328125 64.628906 64.859375 64.507812 64.390625 64.359375 C 63.921875 64.21875 63.460938 64.046875 63.011719 63.867188 C 62.558594 63.679688 62.109375 63.46875 61.679688 63.238281 C 61.25 63.007812 60.820312 62.757812 60.421875 62.488281 C 60.011719 62.21875 59.609375 61.917969 59.230469 61.609375 C 58.851562 61.296875 58.480469 60.96875 58.140625 60.617188 C 55.339844 57.828125 53.738281 53.96875 53.738281 50.019531 C 53.738281 49.527344 53.769531 49.027344 53.820312 48.539062 C 53.871094 48.058594 53.941406 47.570312 54.039062 47.089844 C 54.128906 46.609375 54.25 46.128906 54.398438 45.660156 C 54.539062 45.199219 54.710938 44.726562 54.890625 44.277344 C 55.078125 43.828125 55.289062 43.378906 55.519531 42.949219 C 55.75 42.519531 56 42.097656 56.269531 41.6875 C 56.539062 41.277344 56.839844 40.878906 57.148438 40.507812 C 57.460938 40.117188 57.789062 39.757812 58.140625 39.40625 C 58.480469 39.058594 58.851562 38.726562 59.230469 38.417969 C 59.609375 38.109375 60.011719 37.816406 60.421875 37.546875 C 60.820312 37.277344 61.25 37.019531 61.679688 36.789062 C 62.109375 36.558594 62.558594 36.347656 63.011719 36.167969 C 63.460938 35.976562 63.921875 35.808594 64.390625 35.667969 C 64.859375 35.527344 65.328125 35.40625 65.808594 35.308594 C 66.289062 35.207031 66.78125 35.136719 67.269531 35.089844 C 71.710938 34.636719 76.210938 36.269531 79.351562 39.40625 C 79.699219 39.757812 80.03125 40.117188 80.339844 40.507812 C 80.648438 40.878906 80.941406 41.277344 81.210938 41.6875 C 81.480469 42.097656 81.738281 42.519531 81.96875 42.949219 C 82.199219 43.378906 82.410156 43.828125 82.589844 44.277344 C 82.78125 44.726562 82.949219 45.199219 83.089844 45.660156 C 83.230469 46.128906 83.351562 46.609375 83.449219 47.089844 C 83.550781 47.570312 83.621094 48.058594 83.671875 48.539062 C 83.71875 49.027344 83.738281 49.527344 83.738281 50.019531 C 83.738281 53.96875 82.140625 57.828125 79.351562 60.617188 Z M 129.351562 60.617188 C 129 60.96875 128.640625 61.300781 128.25 61.609375 C 127.878906 61.917969 127.480469 62.21875 127.070312 62.488281 C 126.660156 62.757812 126.238281 63.007812 125.808594 63.238281 C 125.378906 63.46875 124.929688 63.679688 124.480469 63.867188 C 124.03125 64.050781 123.558594 64.21875 123.101562 64.359375 C 122.628906 64.507812 122.148438 64.628906 121.671875 64.71875 C 121.191406 64.820312 120.699219 64.886719 120.21875 64.9375 C 119.730469 64.988281 119.230469 65.019531 118.738281 65.019531 C 118.25 65.019531 117.761719 64.988281 117.269531 64.9375 C 116.78125 64.886719 116.289062 64.820312 115.808594 64.71875 C 115.328125 64.628906 114.859375 64.507812 114.390625 64.359375 C 113.921875 64.21875 113.460938 64.046875 113.011719 63.867188 C 112.558594 63.679688 112.109375 63.46875 111.679688 63.238281 C 111.25 63.007812 110.820312 62.757812 110.421875 62.488281 C 110.011719 62.21875 109.609375 61.917969 109.230469 61.609375 C 108.851562 61.296875 108.480469 60.96875 108.140625 60.617188 C 105.351562 57.828125 103.738281 53.96875 103.738281 50.019531 C 103.738281 49.527344 103.769531 49.027344 103.820312 48.539062 C 103.871094 48.058594 103.941406 47.570312 104.039062 47.089844 C 104.128906 46.609375 104.25 46.128906 104.398438 45.660156 C 104.539062 45.199219 104.710938 44.726562 104.890625 44.277344 C 105.078125 43.828125 105.289062 43.378906 105.519531 42.949219 C 105.75 42.519531 106 42.097656 106.269531 41.6875 C 106.539062 41.277344 106.839844 40.878906 107.148438 40.507812 C 107.460938 40.117188 107.789062 39.757812 108.140625 39.40625 C 108.480469 39.058594 108.851562 38.726562 109.230469 38.417969 C 109.609375 38.109375 110.011719 37.816406 110.421875 37.546875 C 110.820312 37.277344 111.25 37.019531 111.679688 36.789062 C 112.109375 36.558594 112.558594 36.347656 113.011719 36.167969 C 113.460938 35.976562 113.921875 35.808594 114.390625 35.667969 C 114.859375 35.527344 115.328125 35.40625 115.808594 35.308594 C 116.289062 35.207031 116.78125 35.136719 117.269531 35.089844 C 118.25 34.988281 119.238281 34.988281 120.21875 35.089844 C 120.699219 35.136719 121.191406 35.207031 121.671875 35.308594 C 122.148438 35.410156 122.628906 35.527344 123.101562 35.667969 C 123.558594 35.808594 124.03125 35.976562 124.480469 36.167969 C 124.929688 36.347656 125.378906 36.558594 125.808594 36.789062 C 126.238281 37.015625 126.660156 37.277344 127.070312 37.546875 C 127.480469 37.820312 127.878906 38.109375 128.25 38.417969 C 128.640625 38.726562 129 39.058594 129.351562 39.40625 C 129.699219 39.757812 130.03125 40.117188 130.339844 40.507812 C 130.648438 40.878906 130.941406 41.277344 131.210938 41.6875 C 131.480469 42.097656 131.738281 42.519531 131.96875 42.949219 C 132.199219 43.378906 132.410156 43.828125 132.589844 44.277344 C 132.78125 44.726562 132.949219 45.199219 133.089844 45.660156 C 133.230469 46.128906 133.351562 46.609375 133.449219 47.089844 C 133.550781 47.570312 133.621094 48.058594 133.671875 48.539062 C 133.71875 49.027344 133.738281 49.527344 133.738281 50.019531 C 133.738281 53.96875 132.140625 57.828125 129.351562 60.617188 Z M 179.351562 60.617188 C 179 60.96875 178.640625 61.300781 178.25 61.609375 C 177.878906 61.917969 177.480469 62.21875 177.070312 62.488281 C 176.660156 62.757812 176.238281 63.007812 175.808594 63.238281 C 175.378906 63.46875 174.929688 63.679688 174.480469 63.867188 C 174.03125 64.050781 173.570312 64.21875 173.101562 64.359375 C 172.628906 64.507812 172.148438 64.628906 171.671875 64.71875 C 171.191406 64.820312 170.699219 64.886719 170.21875 64.9375 C 169.730469 64.988281 169.230469 65.019531 168.738281 65.019531 C 164.789062 65.019531 160.929688 63.417969 158.140625 60.617188 C 155.339844 57.828125 153.738281 53.96875 153.738281 50.019531 C 153.738281 49.527344 153.769531 49.027344 153.820312 48.539062 C 153.871094 48.058594 153.941406 47.570312 154.039062 47.089844 C 154.128906 46.609375 154.25 46.128906 154.398438 45.660156 C 154.539062 45.199219 154.710938 44.726562 154.890625 44.277344 C 155.078125 43.828125 155.289062 43.378906 155.519531 42.949219 C 155.75 42.519531 156 42.097656 156.269531 41.6875 C 156.539062 41.277344 156.839844 40.878906 157.148438 40.507812 C 157.460938 40.117188 157.789062 39.757812 158.140625 39.40625 C 161.269531 36.265625 165.78125 34.636719 170.21875 35.089844 C 170.699219 35.136719 171.191406 35.207031 171.671875 35.308594 C 172.148438 35.410156 172.628906 35.527344 173.101562 35.667969 C 173.570312 35.808594 174.03125 35.976562 174.480469 36.167969 C 174.929688 36.347656 175.378906 36.558594 175.808594 36.789062 C 176.238281 37.015625 176.660156 37.277344 177.070312 37.546875 C 177.480469 37.820312 177.878906 38.109375 178.25 38.417969 C 178.640625 38.726562 179 39.058594 179.351562 39.40625 C 179.699219 39.757812 180.03125 40.117188 180.339844 40.507812 C 180.648438 40.878906 180.941406 41.277344 181.21875 41.6875 C 181.480469 42.097656 181.738281 42.519531 181.96875 42.949219 C 182.199219 43.378906 182.410156 43.828125 182.589844 44.277344 C 182.78125 44.726562 182.949219 45.199219 183.089844 45.660156 C 183.230469 46.128906 183.351562 46.609375 183.449219 47.089844 C 183.550781 47.570312 183.621094 48.058594 183.671875 48.539062 C 183.71875 49.027344 183.738281 49.527344 183.738281 50.019531 C 183.738281 53.96875 182.140625 57.828125 179.351562 60.617188 Z M 179.351562 60.617188 " style=" stroke:none;fill-rule:nonzero;fill:rgb(0%,0%,0%);fill-opacity:1;" />
<path d="M 354.609375 271.679688 L 354.609375 270.164062 C 354.609375 260.976562 350.476562 256.382812 342.207031 256.382812 L 328.566406 256.382812 L 328.566406 285.457031 L 342.207031 285.457031 C 350.476562 285.457031 354.609375 280.867188 354.609375 271.679688 Z M 354.609375 271.679688 " style=" stroke:none;fill-rule:nonzero;fill:rgb(0%,0%,0%);fill-opacity:1;" />
<path d="M 0 430.535156 C 0 439.839844 7.570312 447.40625 16.871094 447.40625 L 495.128906 447.40625 C 504.429688 447.40625 512 439.839844 512 430.535156 L 512 129.160156 L 0 129.160156 Z M 422.328125 303.921875 C 419.34375 301.625 415.714844 299.535156 411.445312 297.652344 C 407.175781 295.769531 402.878906 293.65625 398.5625 291.3125 C 394.242188 288.96875 390.59375 285.640625 387.609375 281.324219 C 384.621094 277.007812 383.128906 271.863281 383.128906 265.890625 C 383.128906 256.152344 386.574219 248.875 393.464844 244.050781 C 400.355469 239.230469 408.664062 236.816406 418.402344 236.816406 C 420.792969 236.816406 423.296875 236.960938 425.914062 237.242188 C 428.53125 237.527344 431.46875 238.074219 434.730469 238.878906 C 437.992188 239.683594 440.65625 240.984375 442.722656 242.78125 C 444.789062 244.582031 445.824219 246.757812 445.824219 249.3125 C 445.824219 251.738281 445.066406 254.257812 443.550781 256.871094 C 442.035156 259.484375 439.945312 260.792969 437.28125 260.792969 C 436.179688 260.792969 433.835938 259.921875 430.253906 258.175781 C 426.671875 256.433594 422.722656 255.558594 418.402344 255.558594 C 413.808594 255.558594 410.363281 256.363281 408.070312 257.96875 C 405.773438 259.578125 404.625 261.53125 404.625 263.824219 C 404.625 265.9375 405.703125 267.867188 407.863281 269.613281 C 410.019531 271.355469 412.707031 272.847656 415.925781 274.089844 C 419.140625 275.328125 422.652344 276.9375 426.464844 278.910156 C 430.277344 280.890625 433.789062 283.046875 437.007812 285.390625 C 440.222656 287.730469 442.90625 291.015625 445.066406 295.242188 C 447.226562 299.46875 448.304688 304.289062 448.304688 309.710938 C 448.304688 319.183594 445.136719 326.554688 438.800781 331.832031 C 432.460938 337.109375 424.144531 339.746094 413.859375 339.746094 C 404.949219 339.746094 397.1875 337.910156 390.574219 334.234375 C 383.960938 330.5625 380.652344 326.429688 380.652344 321.835938 C 380.652344 319.265625 381.59375 316.691406 383.476562 314.117188 C 385.359375 311.546875 387.542969 310.261719 390.023438 310.261719 C 391.398438 310.261719 392.9375 310.820312 394.640625 311.929688 C 396.339844 313.046875 397.898438 314.28125 399.324219 315.632812 C 400.746094 316.988281 402.746094 318.222656 405.316406 319.335938 C 407.886719 320.453125 410.597656 321.007812 413.445312 321.007812 C 417.03125 321.007812 420.152344 320.25 422.816406 318.734375 C 425.480469 317.21875 426.8125 314.945312 426.8125 311.914062 C 426.8125 308.882812 425.3125 306.21875 422.328125 303.921875 Z M 307.070312 244.121094 C 307.070312 242.378906 307.804688 240.859375 309.277344 239.574219 C 310.746094 238.289062 312.675781 237.644531 315.0625 237.644531 L 343.585938 237.644531 C 353.414062 237.644531 361.292969 240.195312 367.214844 245.289062 C 373.140625 250.390625 376.105469 258.40625 376.105469 269.335938 L 376.105469 270.023438 C 376.105469 280.957031 373.003906 289.015625 366.804688 294.207031 C 360.601562 299.394531 352.402344 301.992188 342.207031 301.992188 L 328.566406 301.992188 L 328.566406 331.753906 C 328.566406 333.867188 327.511719 335.496094 325.398438 336.644531 C 323.285156 337.796875 320.757812 338.367188 317.820312 338.367188 C 314.878906 338.367188 312.351562 337.796875 310.242188 336.644531 C 308.128906 335.496094 307.070312 333.867188 307.070312 331.753906 Z M 227.707031 240.390625 C 228.808594 238.558594 230.414062 237.644531 232.527344 237.644531 L 292.054688 237.644531 C 294.164062 237.644531 295.773438 238.558594 296.875 240.390625 C 297.980469 242.21875 298.53125 244.382812 298.53125 246.882812 C 298.53125 249.558594 297.953125 251.8125 296.808594 253.640625 C 295.65625 255.472656 294.074219 256.382812 292.054688 256.382812 L 273.039062 256.382812 L 273.039062 331.710938 C 273.039062 333.835938 271.980469 335.480469 269.871094 336.636719 C 267.757812 337.789062 265.230469 338.367188 262.292969 338.367188 C 259.351562 338.367188 256.824219 337.789062 254.714844 336.636719 C 252.597656 335.480469 251.542969 333.835938 251.542969 331.710938 L 251.542969 256.382812 L 232.527344 256.382812 C 230.507812 256.382812 228.921875 255.472656 227.777344 253.640625 C 226.625 251.8125 226.054688 249.558594 226.054688 246.882812 C 226.054688 244.382812 226.605469 242.21875 227.707031 240.390625 Z M 147.515625 240.390625 C 148.617188 238.558594 150.222656 237.644531 152.335938 237.644531 L 211.863281 237.644531 C 213.972656 237.644531 215.582031 238.558594 216.683594 240.390625 C 217.785156 242.21875 218.339844 244.382812 218.339844 246.882812 C 218.339844 249.558594 217.761719 251.8125 216.613281 253.640625 C 215.464844 255.472656 213.882812 256.382812 211.863281 256.382812 L 192.847656 256.382812 L 192.847656 331.710938 C 192.847656 333.835938 191.789062 335.480469 189.679688 336.636719 C 187.5625 337.789062 185.039062 338.367188 182.101562 338.367188 C 179.160156 338.367188 176.632812 337.789062 174.519531 336.636719 C 172.40625 335.480469 171.351562 333.835938 171.351562 331.710938 L 171.351562 256.382812 L 152.335938 256.382812 C 150.316406 256.382812 148.730469 255.472656 147.585938 253.640625 C 146.433594 251.8125 145.863281 249.558594 145.863281 246.882812 C 145.863281 244.382812 146.414062 242.21875 147.515625 240.390625 Z M 66.910156 244.121094 C 66.910156 242.007812 67.964844 240.398438 70.078125 239.300781 C 72.191406 238.195312 74.71875 237.644531 77.65625 237.644531 C 80.597656 237.644531 83.121094 238.195312 85.238281 239.300781 C 87.347656 240.402344 88.40625 242.007812 88.40625 244.121094 L 88.40625 277.878906 L 115.824219 277.878906 L 115.824219 244.121094 C 115.824219 242.007812 116.882812 240.398438 118.996094 239.300781 C 121.105469 238.195312 123.632812 237.644531 126.574219 237.644531 C 129.511719 237.644531 132.039062 238.195312 134.152344 239.300781 C 136.265625 240.402344 137.320312 242.007812 137.320312 244.121094 L 137.320312 331.753906 C 137.320312 333.867188 136.265625 335.496094 134.152344 336.644531 C 132.039062 337.796875 129.511719 338.367188 126.574219 338.367188 C 123.632812 338.367188 121.109375 337.796875 118.996094 336.644531 C 116.882812 335.5 115.824219 333.867188 115.824219 331.753906 L 115.824219 294.414062 L 88.40625 294.414062 L 88.40625 331.753906 C 88.40625 333.867188 87.347656 335.496094 85.238281 336.644531 C 83.121094 337.796875 80.597656 338.367188 77.65625 338.367188 C 74.71875 338.367188 72.191406 337.796875 70.078125 336.644531 C 67.964844 335.5 66.910156 333.867188 66.910156 331.753906 Z M 66.910156 244.121094 " style=" stroke:none;fill-rule:nonzero;fill:rgb(0%,0%,0%);fill-opacity:1;" />
</g>
</svg>