<svg id="Capa_1" enable-background="new 0 0 511.38 511.38" height="512" viewBox="0 0 511.38 511.38" width="512" xmlns="http://www.w3.org/2000/svg"><g><g><path d="m353.071 145.712h-39.142c-2.761 0-5-2.239-5-5v-20.62c0-14.214-5.54-27.588-15.598-37.657-10.009-9.999-23.315-15.534-37.464-15.58-29.38-.094-53.413 24.791-53.413 54.171v85.686h-49.142v-85.465c0-56.396 45.12-103.069 101.514-103.532 27.653-.227 53.7 10.437 73.254 29.97 19.347 19.368 29.992 45.076 29.992 72.406v20.62c-.001 2.762-2.239 5.001-5.001 5.001z" fill="#685e68"/><path d="m270.761 18.811c-49.65 7.34-87.45 50.81-87.45 102.44v85.46h-30v-85.46c0-56.4 45.12-103.07 101.51-103.54 5.39-.04 10.71.33 15.94 1.1z" fill="#554e56"/><path d="m366.749 428.252h-222.115c-8.778 0-15.894-7.116-15.894-15.894v-205.733c0-8.778 7.116-15.894 15.894-15.894h222.114c8.778 0 15.894 7.116 15.894 15.894v205.734c0 8.777-7.116 15.893-15.893 15.893z" fill="#fe646f"/><g><path d="m281.211 369.862h-51.04c-2.84 0-5.04-2.46-4.73-5.28l7.699-68.484c.156-1.387-.189-2.776-.945-3.949-3.087-4.789-4.752-10.588-4.382-16.803.829-13.939 12.157-25.303 26.094-26.169 16.239-1.009 29.715 11.854 29.715 27.875 0 5.567-1.629 10.746-4.43 15.092-.757 1.175-1.105 2.565-.949 3.954l7.699 68.483c.309 2.821-1.891 5.281-4.731 5.281z" fill="#554e56"/></g><path d="m174.631 428.251h-30c-8.77 0-15.89-7.11-15.89-15.89v-205.74c0-8.77 7.12-15.89 15.89-15.89h30c-8.77 0-15.89 7.12-15.89 15.89v205.74c0 8.78 7.12 15.89 15.89 15.89z" fill="#fd4755"/><path d="m479.673 493.672h-447.964c-13.368 0-24.205-10.837-24.205-24.205v-106.509c0-13.368 10.837-24.205 24.205-24.205h447.964c13.368 0 24.205 10.837 24.205 24.205v106.509c.001 13.368-10.836 24.205-24.205 24.205z" fill="#ac80dd"/><path d="m61.711 493.671h-30c-13.37 0-24.21-10.84-24.21-24.2v-106.51c0-13.37 10.84-24.21 24.21-24.21h30c-13.37 0-24.21 10.84-24.21 24.21v106.51c0 13.36 10.84 24.2 24.21 24.2z" fill="#8659b9"/></g><g><path d="m479.67 331.251h-89.53v-29.57c0-4.143-3.358-7.5-7.5-7.5s-7.5 3.357-7.5 7.5v29.57h-85.397l-3.99-35.454c3.513-5.613 5.367-12.084 5.367-18.746 0-9.738-4.07-19.148-11.167-25.817-7.2-6.767-16.61-10.149-26.515-9.538-17.816 1.1-32.052 15.378-33.114 33.21-.441 7.408 1.385 14.613 5.303 20.898l-3.99 35.447h-85.397v-124.63c0-4.626 3.764-8.39 8.39-8.39h222.12c4.626 0 8.39 3.764 8.39 8.39v60.06c0 4.143 3.358 7.5 7.5 7.5s7.5-3.357 7.5-7.5v-60.06c0-12.897-10.493-23.39-23.39-23.39h-156.8v-62.21c0-12.319 5.082-24.45 13.942-33.283 8.663-8.637 19.957-13.387 31.814-13.387h.137c12.158.043 23.588 4.797 32.18 13.38 8.645 8.653 13.406 20.146 13.406 32.359v20.62c0 6.893 5.607 12.5 12.5 12.5h39.14c6.893 0 12.5-5.607 12.5-12.5v-20.62c0-29.337-11.43-56.936-32.19-77.718-20.797-20.765-48.363-32.165-77.721-32.165-.299 0-.603.001-.901.003-60.074.501-108.947 50.313-108.947 111.04v61.98h-1.18c-12.897 0-23.39 10.492-23.39 23.39v124.63h-89.53c-17.485 0-31.71 14.225-31.71 31.71v49.25c0 4.143 3.358 7.5 7.5 7.5s7.5-3.357 7.5-7.5v-49.25c0-9.214 7.496-16.71 16.71-16.71h447.96c9.214 0 16.71 7.496 16.71 16.71v106.5c0 9.214-7.496 16.71-16.71 16.71h-447.96c-9.214 0-16.71-7.496-16.71-16.71v-22.25c0-4.143-3.358-7.5-7.5-7.5s-7.5 3.357-7.5 7.5v22.25c0 17.485 14.225 31.71 31.71 31.71h447.96c17.485 0 31.71-14.225 31.71-31.71v-106.5c0-17.484-14.225-31.709-31.71-31.709zm-318.86-210c0-52.524 42.201-95.608 94.069-96.04.26-.002.519-.003.778-.003 25.351 0 49.162 9.848 67.116 27.773 17.924 17.942 27.796 41.776 27.796 67.109v18.12h-34.14v-18.12c0-16.217-6.319-31.475-17.799-42.966-11.416-11.404-26.593-17.717-42.738-17.773-.062 0-.123 0-.185 0-15.857 0-30.912 6.305-42.407 17.764-11.663 11.627-18.352 27.63-18.352 43.906v62.21h-34.14v-61.98zm77.689 166.844c-2.356-3.663-3.463-7.915-3.202-12.298.602-10.104 8.976-18.508 19.068-19.131 5.73-.349 11.165 1.597 15.315 5.498 4.152 3.902 6.439 9.189 6.439 14.887 0 3.934-1.118 7.746-3.236 11.03-1.686 2.618-2.433 5.752-2.098 8.859l3.862 34.311h-37.917l3.866-34.346c.334-3.084-.418-6.224-2.097-8.81z"/><path d="m109.357 365.823c-4.142 0-7.5 3.357-7.5 7.5v85.777c0 4.143 3.358 7.5 7.5 7.5s7.5-3.357 7.5-7.5v-36.859h44.359v36.859c0 4.143 3.358 7.5 7.5 7.5s7.5-3.357 7.5-7.5v-85.777c0-4.143-3.358-7.5-7.5-7.5s-7.5 3.357-7.5 7.5v33.918h-44.359v-33.918c0-4.143-3.357-7.5-7.5-7.5z"/><path d="m222.306 466.6c4.142 0 7.5-3.357 7.5-7.5v-78.277h16.281c4.142 0 7.5-3.357 7.5-7.5s-3.358-7.5-7.5-7.5h-47.371c-4.142 0-7.5 3.357-7.5 7.5s3.358 7.5 7.5 7.5h16.089v78.277c.001 4.143 3.359 7.5 7.501 7.5z"/><path d="m299.677 466.6c4.142 0 7.5-3.357 7.5-7.5v-78.277h16.281c4.142 0 7.5-3.357 7.5-7.5s-3.358-7.5-7.5-7.5h-47.371c-4.142 0-7.5 3.357-7.5 7.5s3.358 7.5 7.5 7.5h16.09v78.277c0 4.143 3.358 7.5 7.5 7.5z"/><path d="m360.958 459.1v-29.8c5.473-.03 12.641-.064 16.384-.064 17.744 0 32.18-14.224 32.18-31.706 0-17.483-14.436-31.707-32.18-31.707h-23.884c-4.142 0-7.5 3.357-7.5 7.5v85.777c0 4.143 3.358 7.5 7.5 7.5s7.5-3.357 7.5-7.5zm16.384-78.277c9.313 0 17.18 7.651 17.18 16.707s-7.868 16.706-17.18 16.706c-3.724 0-10.795.034-16.26.063-.03-5.619-.064-12.968-.064-16.77 0-3.215-.02-10.857-.037-16.707h16.361z"/><path d="m416.776 161.547c-4.142 0-7.5 3.357-7.5 7.5s3.358 7.5 7.5 7.5h86.914c4.142 0 7.5-3.357 7.5-7.5s-3.358-7.5-7.5-7.5z"/><path d="m409.787 138.984c1.09 3.077 3.981 4.998 7.069 4.998.831 0 1.676-.139 2.504-.433l81.925-29.021c3.904-1.383 5.948-5.669 4.565-9.573-1.383-3.905-5.667-5.951-9.574-4.565l-81.925 29.021c-3.904 1.382-5.948 5.669-4.564 9.573z"/><path d="m406.455 114.446c1.478 0 2.971-.437 4.276-1.344l71.355-49.622c3.4-2.364 4.24-7.038 1.875-10.439-2.364-3.4-7.039-4.239-10.439-1.875l-71.355 49.622c-3.4 2.364-4.24 7.039-1.875 10.439 1.456 2.096 3.79 3.219 6.163 3.219z"/></g></g></svg>